<svg xmlns="http://www.w3.org/2000/svg" width="180" height="59" viewBox="0 0 180 59" fill="none"><path d="M6.71767 55.644C6.4223 56.0601 6.00918 56.3722 5.47831 56.5803C4.95144 56.7845 4.33675 56.8866 3.63425 56.8866C2.92376 56.8866 2.29311 56.7236 1.74228 56.3978C1.19146 56.068 0.764369 55.6008 0.461016 54.9962C0.161655 54.3916 0.00798297 53.6908 0 52.8938V52.1459C0 50.8542 0.305349 49.8531 0.916046 49.1425C1.53073 48.4319 2.3929 48.0766 3.50253 48.0766C4.41259 48.0766 5.14502 48.3063 5.69984 48.7656C6.25466 49.221 6.59393 49.8688 6.71767 50.709H5.56812C5.35258 49.5744 4.66605 49.0071 3.50852 49.0071C2.73816 49.0071 2.15341 49.274 1.75426 49.808C1.3591 50.338 1.15953 51.1075 1.15553 52.1165V52.8172C1.15553 53.7791 1.37906 54.5447 1.8261 55.114C2.27315 55.6793 2.87786 55.962 3.64023 55.962C4.07131 55.962 4.44851 55.9149 4.77182 55.8206C5.09513 55.7264 5.36256 55.5674 5.57411 55.3436V53.4179H3.55641V52.4992H6.71767V55.644Z" fill="white"></path><path d="M13.4533 54.5309H9.80109L8.98084 56.7688H7.79537L11.1243 48.1944H12.1301L15.465 56.7688H14.2855L13.4533 54.5309ZM10.1483 53.6005H13.112L11.6272 49.5901L10.1483 53.6005Z" fill="white"></path><path d="M18.1233 48.1944L20.9733 55.1905L23.8232 48.1944H25.314V56.7688H24.1644V53.4297L24.2722 49.8256L21.4103 56.7688H20.5302L17.6743 49.8433L17.7881 53.4297V56.7688H16.6385V48.1944H18.1233Z" fill="white"></path><path d="M32.2712 52.8055H28.4932V55.8442H32.8819V56.7688H27.3437V48.1944H32.822V49.1248H28.4932V51.8809H32.2712V52.8055Z" fill="white"></path><path d="M42.1621 52.9821H38.5039V56.7688H37.3543V48.1944H42.7548V49.1248H38.5039V52.0576H42.1621V52.9821Z" fill="white"></path><path d="M50.8375 52.7584C50.8375 53.5985 50.6939 54.3327 50.4065 54.9608C50.1191 55.5851 49.7119 56.0621 49.1851 56.3919C48.6582 56.7217 48.0435 56.8866 47.341 56.8866C46.6545 56.8866 46.0458 56.7217 45.5149 56.3919C44.984 56.0582 44.5709 55.5851 44.2755 54.9726C43.9842 54.3562 43.8345 53.6437 43.8265 52.8349V52.2166C43.8265 51.3921 43.9722 50.6638 44.2636 50.0317C44.5549 49.3997 44.9661 48.9168 45.4969 48.583C46.0318 48.2454 46.6425 48.0766 47.329 48.0766C48.0275 48.0766 48.6422 48.2434 49.1731 48.5772C49.708 48.9069 50.1191 49.3879 50.4065 50.02C50.6939 50.6481 50.8375 51.3803 50.8375 52.2166V52.7584ZM49.694 52.2048C49.694 51.188 49.4864 50.4086 49.0713 49.8668C48.6562 49.3211 48.0754 49.0483 47.329 49.0483C46.6026 49.0483 46.0298 49.3211 45.6107 49.8668C45.1956 50.4086 44.982 51.1624 44.9701 52.1282V52.7584C44.9701 53.7438 45.1796 54.5192 45.5987 55.0845C46.0218 55.6459 46.6026 55.9266 47.341 55.9266C48.0834 55.9266 48.6582 55.6616 49.0653 55.1316C49.4725 54.5977 49.682 53.8341 49.694 52.8408V52.2048Z" fill="white"></path><path d="M55.759 53.3001H53.7114V56.7688H52.5559V48.1944H55.4417C56.4236 48.1944 57.178 48.4142 57.7049 48.8539C58.2358 49.2937 58.5012 49.9336 58.5012 50.7738C58.5012 51.3077 58.3535 51.7729 58.0581 52.1695C57.7668 52.566 57.3596 52.8624 56.8367 53.0587L58.8844 56.6981V56.7688H57.651L55.759 53.3001ZM53.7114 52.3756H55.4776C56.0484 52.3756 56.5015 52.2303 56.8367 51.9398C57.176 51.6493 57.3457 51.2606 57.3457 50.7738C57.3457 50.2437 57.184 49.8374 56.8607 49.5547C56.5414 49.2721 56.0784 49.1288 55.4717 49.1248H53.7114V52.3756Z" fill="white"></path><path d="M67.967 52.9821H64.3088V56.7688H63.1593V48.1944H68.5597V49.1248H64.3088V52.0576H67.967V52.9821Z" fill="white"></path><path d="M76.0737 48.1944V54.0245C76.0697 54.8333 75.8103 55.4948 75.2954 56.0091C74.7845 56.5234 74.0899 56.812 73.2118 56.8748L72.9065 56.8866C71.9525 56.8866 71.1921 56.6333 70.6253 56.1269C70.0585 55.6204 69.7712 54.9235 69.7632 54.0363V48.1944H70.9007V54.0009C70.9007 54.6212 71.0744 55.1041 71.4216 55.4496C71.7689 55.7912 72.2638 55.962 72.9065 55.962C73.5571 55.962 74.054 55.7912 74.3973 55.4496C74.7445 55.1081 74.9182 54.6271 74.9182 54.0068V48.1944H76.0737Z" fill="white"></path><path d="M84.5875 56.7688H83.432L79.0434 50.1613V56.7688H77.8878V48.1944H79.0434L83.444 54.8313V48.1944H84.5875V56.7688Z" fill="white"></path><path d="M86.4196 58.4766L85.791 58.0526C86.1662 57.5383 86.3618 57.0083 86.3777 56.4625V55.4791H87.4614V56.333C87.4614 56.7295 87.3616 57.126 87.1621 57.5226C86.9665 57.9191 86.719 58.2371 86.4196 58.4766Z" fill="white"></path><path d="M97.0051 52.8055H93.2271V55.8442H97.6157V56.7688H92.0776V48.1944H97.5559V49.1248H93.2271V51.8809H97.0051V52.8055Z" fill="white"></path><path d="M103.86 54.5309H100.208L99.388 56.7688H98.2025L101.531 48.1944H102.537L105.872 56.7688H104.693L103.86 54.5309ZM100.555 53.6005H103.519L102.034 49.5901L100.555 53.6005Z" fill="white"></path><path d="M110.243 53.3001H108.195V56.7688H107.04V48.1944H109.925C110.907 48.1944 111.662 48.4142 112.189 48.8539C112.72 49.2937 112.985 49.9336 112.985 50.7738C112.985 51.3077 112.837 51.7729 112.542 52.1695C112.251 52.566 111.843 52.8624 111.321 53.0587L113.368 56.6981V56.7688H112.135L110.243 53.3001ZM108.195 52.3756H109.961C110.532 52.3756 110.985 52.2303 111.321 51.9398C111.66 51.6493 111.829 51.2606 111.829 50.7738C111.829 50.2437 111.668 49.8374 111.344 49.5547C111.025 49.2721 110.562 49.1288 109.955 49.1248H108.195V52.3756Z" fill="white"></path><path d="M121.301 56.7688H120.146L115.757 50.1613V56.7688H114.602V48.1944H115.757L120.158 54.8313V48.1944H121.301V56.7688Z" fill="white"></path><path d="M131.192 52.9821H127.534V56.7688H126.384V48.1944H131.785V49.1248H127.534V52.0576H131.192V52.9821Z" fill="white"></path><path d="M139.868 52.7584C139.868 53.5985 139.724 54.3327 139.437 54.9608C139.149 55.5851 138.742 56.0621 138.215 56.3919C137.688 56.7217 137.074 56.8866 136.371 56.8866C135.685 56.8866 135.076 56.7217 134.545 56.3919C134.014 56.0582 133.601 55.5851 133.306 54.9726C133.014 54.3562 132.865 53.6437 132.857 52.8349V52.2166C132.857 51.3921 133.002 50.6638 133.294 50.0317C133.585 49.3997 133.996 48.9168 134.527 48.583C135.062 48.2454 135.673 48.0766 136.359 48.0766C137.058 48.0766 137.672 48.2434 138.203 48.5772C138.738 48.9069 139.149 49.3879 139.437 50.02C139.724 50.6481 139.868 51.3803 139.868 52.2166V52.7584ZM138.724 52.2048C138.724 51.188 138.516 50.4086 138.101 49.8668C137.686 49.3211 137.106 49.0483 136.359 49.0483C135.633 49.0483 135.06 49.3211 134.641 49.8668C134.226 50.4086 134.012 51.1624 134 52.1282V52.7584C134 53.7438 134.21 54.5192 134.629 55.0845C135.052 55.6459 135.633 55.9266 136.371 55.9266C137.113 55.9266 137.688 55.6616 138.095 55.1316C138.503 54.5977 138.712 53.8341 138.724 52.8408V52.2048Z" fill="white"></path><path d="M144.789 53.3001H142.741V56.7688H141.586V48.1944H144.472C145.454 48.1944 146.208 48.4142 146.735 48.8539C147.266 49.2937 147.531 49.9336 147.531 50.7738C147.531 51.3077 147.384 51.7729 147.088 52.1695C146.797 52.566 146.39 52.8624 145.867 53.0587L147.914 56.6981V56.7688H146.681L144.789 53.3001ZM142.741 52.3756H144.508C145.078 52.3756 145.532 52.2303 145.867 51.9398C146.206 51.6493 146.376 51.2606 146.376 50.7738C146.376 50.2437 146.214 49.8374 145.891 49.5547C145.571 49.2721 145.108 49.1288 144.502 49.1248H142.741V52.3756Z" fill="white"></path><path d="M155.387 53.3001H153.339V56.7688H152.183V48.1944H155.069C156.051 48.1944 156.805 48.4142 157.332 48.8539C157.863 49.2937 158.129 49.9336 158.129 50.7738C158.129 51.3077 157.981 51.7729 157.686 52.1695C157.394 52.566 156.987 52.8624 156.464 53.0587L158.512 56.6981V56.7688H157.278L155.387 53.3001ZM153.339 52.3756H155.105C155.676 52.3756 156.129 52.2303 156.464 51.9398C156.803 51.6493 156.973 51.2606 156.973 50.7738C156.973 50.2437 156.811 49.8374 156.488 49.5547C156.169 49.2721 155.706 49.1288 155.099 49.1248H153.339V52.3756Z" fill="white"></path><path d="M164.673 52.8055H160.895V55.8442H165.283V56.7688H159.745V48.1944H165.224V49.1248H160.895V51.8809H164.673V52.8055Z" fill="white"></path><path d="M171.528 54.5309H167.876L167.056 56.7688H165.87L169.199 48.1944H170.205L173.54 56.7688H172.36L171.528 54.5309ZM168.223 53.6005H171.187L169.702 49.5901L168.223 53.6005Z" fill="white"></path><path d="M175.869 55.8442H180V56.7688H174.713V48.1944H175.869V55.8442Z" fill="white"></path><path d="M151.066 8.57374C146.249 8.57374 141.38 8.62446 136.563 8.52301C135.371 8.52301 135.112 8.87808 135.164 9.94329C135.268 11.6172 135.164 13.3418 135.164 15.0664C135.216 19.6316 133.092 22.1171 128.534 22.8273C127.446 23.0302 126.306 23.0809 125.219 23.0809C118.329 23.0809 111.388 23.0809 104.499 23.0302C103.567 23.0302 103.204 23.2331 103.256 24.1968C103.36 26.1243 103.308 28.1026 103.256 30.0301C103.204 34.7475 100.925 37.233 96.1079 37.8417C93 38.1967 93 38.1967 93 35.204C93 29.0664 93 22.9794 93 16.8418C93 15.9288 93.259 15.6751 94.1914 15.7259C103.981 15.7766 113.823 15.7259 123.613 15.7766C124.649 15.7766 124.96 15.523 124.908 14.5085C124.856 12.1244 124.753 9.7404 125.012 7.35635C125.271 4.87086 126.565 3.14624 128.896 2.13175C130.658 1.32016 132.574 1.06654 134.439 1.06654C142.675 1.06654 150.911 0.863645 159.147 1.16799C160.338 1.21872 161.53 1.52306 162.617 1.92886C165.155 2.89262 166.606 4.71869 166.968 7.35635C167.072 8.16794 166.968 8.57374 165.932 8.57374C161.012 8.52301 156.039 8.57374 151.066 8.57374Z" fill="white"></path><path d="M159.017 16.056C165.575 16.056 172.133 16.056 178.691 16.056C180.085 16.056 180.137 16.1082 179.879 17.5188C179.311 20.7057 177.09 22.691 173.424 23.2657C172.288 23.4747 171.152 23.5792 169.964 23.5792C163.096 23.5792 156.28 23.5792 149.412 23.5269C148.431 23.5269 148.173 23.7881 148.173 24.7808C148.224 27.0273 148.224 29.2738 148.173 31.5203C148.069 35.1251 146.365 37.3194 142.957 38.3643C141.666 38.7822 140.272 38.8345 138.929 38.9912C138.258 39.0434 138 38.8867 138 38.103C138 30.9978 138.052 23.8926 138 16.8397C138 15.8993 138.465 16.0037 139.084 16.0037C145.746 16.056 152.407 16.056 159.017 16.056Z" fill="white"></path><path fill-rule="evenodd" clip-rule="evenodd" d="M34.704 16.3072C34.3491 16.2461 33.9917 16.1846 33.6343 16.1101C34.5586 15.9561 35.4315 15.802 36.2531 15.5966C40.0017 14.5696 41.7476 12.2589 41.7476 8.45897C41.7476 4.76177 39.899 2.39967 36.2531 1.47537C35.2775 1.21862 34.2505 1.01322 33.2235 1.01322C27.8317 0.987543 22.44 0.987543 17.0483 0.987543C11.6565 0.987543 6.26473 0.987543 0.872951 0.961868C0.154051 0.961868 0 1.21862 0 1.88617V31.3611C0.0513501 35.2124 1.89995 37.4718 5.64851 38.3961C6.88091 38.7042 8.11331 38.8582 9.39706 38.8582H32.2992C33.6343 38.8582 35.0207 38.7042 36.3045 38.3447C39.7449 37.4204 41.6962 35.161 41.7476 31.7719C41.7989 28.8963 41.7989 26.0207 41.7476 23.1451C41.6962 20.1154 40.1044 18.0101 37.2288 16.9317C36.4267 16.6036 35.5729 16.4567 34.704 16.3072ZM10.1674 9.486V19.602C10.1674 22.9397 10.1674 26.2775 10.2701 29.6152C10.2701 31.053 10.4755 31.3098 11.862 31.3098H30.194C31.3237 31.3611 31.7345 30.8476 31.7345 29.7693C31.6831 28.2288 31.6318 26.6369 31.7345 25.0964C31.7858 24.0181 31.5291 23.71 30.3993 23.71C29.704 23.71 29.0057 23.7245 28.3059 23.739C26.0601 23.7856 23.7987 23.8325 21.5671 23.4019C17.9213 22.7343 15.9186 20.8344 15.3538 17.6507C15.2235 16.8688 15.1593 16.4838 15.3224 16.2942C15.4806 16.1102 15.8528 16.1102 16.5862 16.1102C18.1438 16.1102 19.7014 16.1044 21.259 16.0987C24.3743 16.0873 27.4895 16.0759 30.6047 16.1102C31.4264 16.1615 31.7345 15.9048 31.6831 15.0318C31.6318 13.1832 31.6318 11.3346 31.6831 9.486C31.7345 8.6644 31.4264 8.5617 30.7075 8.5617H30.7071C24.1858 8.5617 17.6644 8.5617 11.1431 8.51035C10.3728 8.51035 10.1674 8.71575 10.1674 9.486Z" fill="white"></path><path d="M88.8924 32.1137C88.9954 26.923 88.8924 16.4903 88.8924 16.4903C88.8924 16.4903 89.0434 11.0332 89.0434 9.70648C89.0434 8.37976 90.8225 8.12734 91.712 8.16697H100.252H120C120 8.16697 118.933 2.20315 113.061 2.25455C108.08 2.25455 96.272 2.24427 88.8924 2.20315C81.5129 2.16204 78.8053 4.43607 78.8053 7.23963L78.8568 16.4903C78.8568 20.8587 78.8053 25.1757 78.8053 29.544C78.8053 31.1886 78.5994 31.3942 77.004 31.3942H59.0943C57.4474 31.3942 57.293 31.24 57.293 29.544V9.70648C57.293 8.8842 57.2415 8.06192 57.1386 7.23963C56.8813 4.87557 55.5946 3.23101 53.4846 2.20315C51.8377 1.43227 50.0879 1.2267 48.3381 1.02113L48.3381 1.02112C47.3088 0.918339 47 1.1753 47 2.25455C47.0515 11.6593 47.0515 21.1154 47.0515 30.5715V30.5719C47.0515 31.2914 47.1029 32.0109 47.1544 32.679C47.4117 35.1972 48.7498 36.9446 51.0143 37.9724C52.5067 38.6405 54.1536 39.0003 55.8005 39.0003H80.2463C81.7388 38.9489 83.2313 38.6405 84.6723 38.0752C87.3999 36.996 88.841 34.9403 88.8924 32.1137Z" fill="white"></path></svg>