<svg width="54" height="48" viewBox="0 0 54 48" fill="none" xmlns="http://www.w3.org/2000/svg">
<path d="M5.67135 0V24.1732L1.59151 28.2531C0.785549 29.059 0.333496 30.155 0.333496 31.2904C0.333496 33.6414 2.27777 35.5857 4.6288 35.5857H21.6293V32.0271H4.6288C4.20058 32.0271 3.89206 31.7186 3.89206 31.2904C3.89206 31.0913 3.9669 30.9097 4.10752 30.7691L8.18737 26.6893H23.4086H23.5198V23.1307H23.4086H9.22991V3.55857H41.257V16.0692H44.8156V0H5.67135ZM35.7315 18.7763L32.5483 20.3679L33.8271 22.9222C32.6715 23.385 31.5997 24.0722 30.6717 25.0003C29.7432 25.9289 29.0647 27.0032 28.604 28.1593L26.0393 26.8769L24.4477 30.0602L27.8985 31.7838C27.8797 32.7957 27.9809 33.8225 28.2286 34.842L25.0767 35.8915L26.2026 39.2693L29.5318 38.1608C29.8856 38.8003 30.2964 39.4166 30.7586 40.0096L28.1557 42.6125L30.6717 45.1285L33.2746 42.5256C33.7396 42.888 34.2184 43.2234 34.7133 43.5195L33.9592 47.297L37.4482 47.9955L38.0529 44.9651H38.0564C41.7371 45.9823 45.6059 45.2939 48.2873 42.6125C50.9686 39.931 51.6571 36.0617 50.64 32.3816L53.6668 31.7769L52.9683 28.2878L49.1943 29.0419C48.898 28.5468 48.5597 28.0686 48.1969 27.6032L50.7998 25.0003L48.2838 22.4843L45.6844 25.0837C45.091 24.6213 44.4722 24.2075 43.8321 23.8535L44.9407 20.5313L41.5628 19.4053L40.5099 22.5608C39.5327 22.3235 38.5479 22.1909 37.5768 22.1993C37.5333 22.1997 37.4917 22.2124 37.4482 22.2132L35.7315 18.7763ZM37.8166 25.7683C38.0956 25.7746 38.3767 25.7944 38.6611 25.8274C38.919 27.9599 38.3382 29.9139 36.9617 31.2904C35.5858 32.6662 33.6322 33.2453 31.5022 32.9897C31.2571 30.8802 31.8228 28.8813 33.1877 27.5163C34.1845 26.5195 35.5203 25.9404 36.9895 25.7961C37.2607 25.7695 37.5376 25.7621 37.8166 25.7683ZM42.2509 27.0715C43.0383 27.5269 43.8052 28.0698 44.5098 28.7744C47.5279 31.7923 48.2112 35.8174 46.7999 38.6125L40.6072 32.4198C41.6647 30.8364 42.1974 28.9803 42.2509 27.0715ZM38.0911 34.9358L44.2839 41.1286C41.4882 42.5379 37.4623 41.8549 34.4457 38.8384C33.7415 38.1343 33.2016 37.3664 32.7463 36.5796C34.6542 36.5253 36.5084 35.9931 38.0911 34.9358Z" fill="#1AB21E"/>
</svg>
