<svg width="54" height="54" viewBox="0 0 54 54" fill="none" xmlns="http://www.w3.org/2000/svg">
<path d="M0 3.5887L3.58857 0.000126L53.3332 49.7448L49.7446 53.3333L0 3.5887Z" fill="#1AB21E"/>
<path d="M18.2726 6.09087V0H22.3332V6.09087H26.3938V0H30.4543V6.09087H31.4695C37.6159 6.09087 42.6361 11.1111 42.6361 17.2575C42.6361 20.6043 41.1768 23.6418 38.8293 25.6959C42.3109 27.5913 44.6664 31.3029 44.6664 35.5301C44.6664 37.1552 44.3154 38.7017 43.6854 40.0974L40.478 36.89C40.5619 36.4503 40.6058 35.9957 40.6058 35.5301C40.6058 31.5805 37.4493 28.4241 33.4998 28.4241H32.0121L27.9515 24.3635H31.4695C35.419 24.3635 38.5755 21.207 38.5755 17.2575C38.5755 13.3079 35.419 10.1514 31.4695 10.1514H14.212V10.624L10.1514 6.56341V6.09087H18.2726Z" fill="#1AB21E"/>
<path d="M10.1514 19.5002V46.6967H18.2726V52.7875H22.3332V46.6967H26.3938V52.7875H30.4543V46.6967H33.4998C34.661 46.6967 35.782 46.5175 36.8366 46.1853L33.2873 42.6361H14.212V28.4241H19.0753L15.0147 24.3635H14.212V23.5608L10.1514 19.5002Z" fill="#1AB21E"/>
</svg>
