<svg width="49" height="54" viewBox="0 0 49 54" fill="none" xmlns="http://www.w3.org/2000/svg">
<path d="M24.381 0.333984C19.3939 0.333984 16.0346 2.29935 13.0216 3.93572C10.0087 5.57208 7.27273 6.98334 2.21645 6.98334H0V9.19979C0 26.308 5.78355 37.4422 11.6364 44.1781C17.4892 50.9141 23.5498 53.3903 23.5498 53.3903L24.381 53.6673L25.2121 53.3903C25.2121 53.3903 31.2727 50.966 37.1255 44.2474C42.9784 37.5288 48.7619 26.3686 48.7619 9.19979V6.98334H46.5455C41.5152 6.98334 38.7533 5.57208 35.7403 3.93572C32.7273 2.29935 29.368 0.333984 24.381 0.333984ZM24.381 4.76688C28.2597 4.76688 30.4849 6.12619 33.5931 7.8145C36.2165 9.24307 39.697 10.611 44.1905 11.0699C43.7662 26.0656 38.8052 35.5981 33.8009 41.3383C29.2641 46.5418 25.4545 48.2734 24.381 48.7496C23.2987 48.2647 19.4978 46.4898 14.961 41.2691C9.95671 35.5115 4.99567 25.9963 4.57143 11.0699C9.08225 10.611 12.5455 9.24307 15.1688 7.8145C18.2771 6.12619 20.5022 4.76688 24.381 4.76688ZM36.0866 16.4725L22.1645 30.3946L14.8918 23.1219L11.7056 26.308L20.5714 35.1738L22.1645 36.6976L23.7576 35.1738L39.2727 19.6587L36.0866 16.4725Z" fill="#1AB21E"/>
</svg>
